<?xml version="1.0" standalone="no"?>
<!DOCTYPE svg PUBLIC "-//W3C//DTD SVG 20010904//EN"
 "http://www.w3.org/TR/2001/REC-SVG-20010904/DTD/svg10.dtd">
<svg version="1.0" xmlns="http://www.w3.org/2000/svg"
 width="2202.000000pt" height="1444.000000pt" viewBox="0 0 2202.000000 1444.000000"
 preserveAspectRatio="xMidYMid meet">

<g transform="translate(0.000000,1444.000000) scale(0.100000,-0.100000)"
fill="#000000">
<path d="M12055 14095 c-262 -27 -554 -86 -725 -147 -47 -16 -105 -36 -130
-44 -67 -22 -274 -128 -370 -192 -47 -31 -120 -91 -163 -134 l-79 -77 -101 49
c-400 192 -941 230 -1525 109 -425 -88 -856 -267 -1207 -502 -401 -268 -754
-650 -932 -1009 -12 -27 -27 -48 -31 -48 -4 0 -34 20 -67 45 -135 101 -386
199 -580 226 -207 28 -754 -65 -1120 -191 -66 -23 -146 -50 -178 -61 -31 -11
-99 -38 -150 -60 -50 -22 -121 -52 -157 -65 -69 -27 -455 -218 -555 -276 -295
-171 -444 -265 -675 -427 -935 -656 -1719 -1522 -2076 -2294 -98 -211 -132
-296 -175 -442 -69 -235 -90 -352 -96 -535 -15 -450 112 -865 369 -1200 l27
-36 -96 -79 c-138 -114 -405 -381 -503 -505 -213 -267 -338 -515 -381 -750
-23 -128 -24 -200 -4 -316 20 -118 38 -171 94 -279 98 -193 284 -382 527 -537
236 -152 348 -196 909 -357 245 -71 383 -108 655 -175 258 -63 963 -213 1205
-256 66 -12 154 -28 195 -35 82 -15 369 -62 575 -94 184 -29 625 -88 785 -106
74 -8 173 -20 220 -25 214 -26 739 -72 1020 -89 768 -48 1641 -38 2170 24 329
38 646 103 880 181 231 76 477 219 568 330 l28 34 49 -93 c156 -290 425 -638
646 -838 277 -250 437 -332 776 -395 115 -22 421 -30 566 -15 196 21 489 98
661 175 32 14 60 26 62 26 2 0 4 -62 4 -137 1 -578 100 -990 318 -1322 124
-187 311 -327 578 -432 534 -209 1172 -217 1984 -25 341 80 465 124 720 251
992 498 1584 1244 1721 2170 11 73 22 220 26 333 l6 203 26 -5 c94 -19 288
-28 461 -23 463 14 885 139 1278 380 605 371 1074 981 1318 1717 115 345 175
806 145 1105 -64 632 -312 1054 -785 1340 -15 9 -10 18 34 70 64 74 187 258
229 343 86 171 158 382 195 567 52 262 48 636 -9 905 -48 229 -75 318 -167
555 -63 163 -111 259 -180 357 -387 559 -1682 1451 -3028 2086 -138 64 -655
291 -690 302 -14 5 -86 32 -160 60 -517 199 -972 323 -1420 387 -93 13 -185
18 -360 18 -206 -1 -248 -3 -343 -24 -218 -46 -358 -115 -494 -244 -83 -79
-67 -80 -165 10 -80 72 -261 188 -398 256 -267 131 -582 219 -960 268 -208 27
-602 34 -795 14z m515 -245 c654 -37 1193 -220 1505 -512 l74 -69 -41 -67
c-171 -279 -336 -774 -417 -1255 -74 -433 -101 -760 -101 -1212 0 -504 45
-973 141 -1458 22 -115 30 -132 72 -157 68 -42 160 -10 184 63 11 33 10 52 -7
130 -103 469 -155 1146 -132 1702 14 322 39 580 82 839 117 707 336 1242 621
1514 97 92 202 143 369 179 126 26 475 24 660 -5 181 -28 400 -74 584 -123
173 -46 610 -192 801 -268 72 -29 153 -60 180 -70 222 -80 939 -425 1345 -647
998 -545 1871 -1192 2164 -1602 81 -115 180 -339 251 -575 93 -304 127 -657
90 -947 -73 -584 -422 -1095 -903 -1322 -182 -86 -205 -90 -611 -95 -712 -10
-1116 48 -1464 210 -317 149 -532 387 -679 752 -31 78 -75 204 -93 272 -23 83
-67 126 -128 126 -83 0 -135 -62 -124 -146 11 -76 114 -366 174 -486 91 -184
178 -307 311 -440 315 -318 710 -468 1402 -532 178 -17 845 -16 958 0 220 32
431 123 629 271 l91 67 49 -24 c82 -42 212 -133 279 -196 182 -170 314 -423
382 -732 25 -114 26 -135 26 -405 1 -231 -3 -303 -17 -380 -67 -361 -145 -598
-297 -901 -300 -597 -797 -1075 -1355 -1303 -333 -135 -700 -194 -1050 -167
-195 14 -276 26 -286 42 -4 7 -12 47 -18 89 -26 173 -116 468 -208 680 -330
759 -926 1336 -1540 1491 -130 33 -181 36 -223 14 -77 -40 -79 -170 -2 -209
15 -7 68 -24 117 -36 405 -101 764 -356 1072 -762 533 -704 714 -1629 471
-2408 -221 -708 -796 -1297 -1640 -1678 -247 -112 -639 -206 -1133 -272 -44
-6 -174 -14 -290 -17 -498 -13 -858 66 -1172 259 -108 66 -157 115 -237 236
-114 173 -189 385 -231 652 -23 141 -31 619 -16 846 30 434 89 843 281 1949
40 231 128 752 139 830 42 273 93 627 111 757 18 139 19 161 7 191 -30 70
-102 101 -164 70 -61 -30 -74 -58 -89 -190 -13 -114 -23 -181 -78 -563 -24
-165 -107 -668 -176 -1065 -103 -592 -149 -872 -189 -1145 -22 -151 -50 -360
-61 -465 -32 -301 -23 -269 -81 -299 -69 -35 -279 -118 -364 -144 -383 -113
-777 -109 -1133 12 -178 60 -514 365 -728 661 -129 178 -186 271 -294 480
-309 596 -512 1328 -600 2155 -74 701 -43 1462 74 1845 20 63 20 108 1 145
-39 75 -160 79 -208 7 -37 -58 -95 -315 -127 -567 -45 -360 -43 -1083 4 -1418
2 -15 0 -19 -8 -14 -209 161 -555 348 -791 428 -474 160 -947 148 -1346 -32
-105 -48 -189 -96 -213 -123 -26 -29 -32 -100 -12 -139 35 -67 112 -79 197
-32 140 79 264 125 429 161 87 18 135 22 280 22 303 -1 540 -58 829 -198 285
-139 506 -291 645 -443 34 -37 41 -53 58 -140 65 -335 84 -425 124 -582 77
-302 160 -557 255 -787 33 -78 59 -150 59 -160 0 -61 -141 -202 -273 -275
-311 -170 -799 -272 -1537 -320 -284 -18 -1119 -16 -1505 5 -1770 96 -3751
441 -5210 907 -356 114 -731 393 -853 635 -16 34 -40 94 -52 134 -20 66 -22
88 -17 210 6 147 18 197 81 341 103 233 332 517 641 794 145 130 254 203 428
290 360 178 736 255 1240 256 206 0 243 2 267 17 84 49 77 173 -12 219 -66 34
-500 27 -753 -12 -327 -51 -546 -115 -799 -230 -76 -35 -139 -64 -141 -64 -6
0 -112 147 -141 195 -73 120 -143 297 -183 465 -46 191 -51 481 -11 674 54
262 179 587 319 830 32 56 69 119 81 141 31 54 128 202 160 245 15 19 66 89
115 155 566 765 1495 1529 2440 2003 144 73 448 209 526 235 24 9 103 36 174
62 170 60 431 128 625 161 124 21 190 27 330 28 171 1 177 0 277 -32 418 -133
711 -494 882 -1087 30 -103 66 -282 92 -451 20 -131 23 -189 23 -479 1 -403
-15 -535 -84 -710 -15 -38 -63 -160 -106 -270 -77 -197 -270 -594 -372 -765
-308 -516 -742 -1111 -1295 -1778 -146 -176 -167 -207 -167 -244 0 -92 100
-154 180 -113 51 26 505 587 867 1070 243 325 477 676 677 1018 70 119 234
454 311 637 213 506 249 668 248 1140 0 283 -8 383 -54 660 -74 448 -254 895
-460 1141 -22 26 -39 51 -39 57 0 45 152 303 264 449 342 445 878 803 1461
978 302 91 455 118 750 135 291 16 553 -14 780 -92 71 -24 199 -84 224 -104 2
-2 -6 -27 -18 -56 -99 -247 -150 -752 -122 -1203 12 -187 48 -499 77 -665 25
-144 65 -352 79 -410 8 -30 24 -95 36 -145 46 -193 153 -551 209 -700 10 -27
42 -113 71 -190 68 -182 101 -256 127 -279 30 -26 101 -32 140 -12 64 33 78
106 38 203 -56 135 -70 172 -98 248 -91 247 -162 478 -253 825 -37 144 -105
507 -134 720 -52 383 -59 866 -17 1161 31 217 81 391 127 443 15 18 32 51 37
73 19 85 140 191 335 293 314 165 714 260 1157 273 47 2 96 4 110 5 14 1 104
-3 200 -8z" stroke= "black" stroke-width="250"/>
</g>
</svg>
