<?xml version="1.0" encoding="UTF-8"?>
<svg xmlns="http://www.w3.org/2000/svg" id="Layer_1" data-name="Layer 1" viewBox="0 0 24 24" width="512" height="512"><path d="m12.5,12.5v4c0,.276-.224.5-.5.5s-.5-.224-.5-.5v-4h-4c-.276,0-.5-.224-.5-.5s.224-.5.5-.5h4v-4c0-.276.224-.5.5-.5s.5.224.5.5v4h4c.276,0,.5.224.5.5s-.224.5-.5.5h-4Zm11.539,2.927c0,1.471-.572,2.852-1.611,3.892l-3.071,3.07c-1.038,1.039-2.419,1.611-3.889,1.611H4.5c-2.481,0-4.5-2.019-4.5-4.5L-.039,4.501C-.039,2.019,1.98,0,4.461,0h15.039c2.481,0,4.5,2.019,4.5,4.5l.039,10.927Zm-8.571,7.573c.194,0,.382-.032.571-.056v-4.444c0-1.379,1.122-2.5,2.5-2.5h4.444c.024-.189.056-.377.056-.571l-.039-10.927c0-1.932-1.57-3.502-3.5-3.502H4.461c-1.93,0-3.5,1.57-3.5,3.5l.039,14.999c0,1.931,1.57,3.501,3.5,3.501h10.967Zm7.277-6h-4.206c-.827,0-1.5.673-1.5,1.5v4.206c.596-.222,1.147-.56,1.611-1.024l3.071-3.07c.463-.464.801-1.015,1.023-1.611Z"/></svg>
