<?xml version="1.0" encoding="UTF-8"?>
<svg xmlns="http://www.w3.org/2000/svg" id="Layer_1" data-name="Layer 1" viewBox="0 0 24 24" width="512" height="512"><path d="M19.5,24H4.5c-2.481,0-4.5-2.019-4.5-4.5V9.561c0-1.497,.741-2.892,1.983-3.729L9.483,.771c1.527-1.033,3.505-1.033,5.034,0l7.499,5.061c1.242,.838,1.983,2.232,1.983,3.729v9.939c0,2.481-2.019,4.5-4.5,4.5ZM12,.996c-.682,0-1.363,.201-1.957,.603L2.542,6.659c-.966,.652-1.542,1.736-1.542,2.901v9.939c0,1.93,1.57,3.5,3.5,3.5h15c1.93,0,3.5-1.57,3.5-3.5V9.561c0-1.165-.576-2.249-1.542-2.901L13.958,1.599c-.595-.401-1.276-.603-1.958-.603Z"/></svg>
