<?xml version="1.0" encoding="UTF-8"?>
<svg xmlns="http://www.w3.org/2000/svg" id="Layer_1" data-name="Layer 1" viewBox="0 0 24 24" width="512" height="512"><path d="m17.5,0H6.5C4.019,0,2,2.019,2,4.5v15c0,2.481,2.019,4.5,4.5,4.5h11c2.481,0,4.5-2.019,4.5-4.5V4.5c0-2.481-2.019-4.5-4.5-4.5ZM6.5,1h11c1.93,0,3.5,1.57,3.5,3.5v.5H3v-.5c0-1.93,1.57-3.5,3.5-3.5Zm11,22H6.5c-1.93,0-3.5-1.57-3.5-3.5V6h18v13.5c0,1.93-1.57,3.5-3.5,3.5Zm.5-12.5c0,.276-.224.5-.5.5H6.5c-.276,0-.5-.224-.5-.5s.224-.5.5-.5h11c.276,0,.5.224.5.5Zm-4,4c0,.276-.224.5-.5.5h-7c-.276,0-.5-.224-.5-.5s.224-.5.5-.5h7c.276,0,.5.224.5.5Z"/></svg>
