<?xml version="1.0" encoding="UTF-8"?>
<svg xmlns="http://www.w3.org/2000/svg" id="Layer_1" data-name="Layer 1" viewBox="0 0 24 24" width="512" height="512"><path d="M13.49,7.61l-2,9c-.05,.23-.26,.39-.49,.39-.04,0-.07,0-.11-.01-.27-.06-.44-.33-.38-.6l2-9c.06-.27,.33-.44,.6-.38,.27,.06,.44,.33,.38,.6Zm-4.57,2.31c.2-.2,.2-.51,0-.71s-.51-.2-.71,0l-1.78,1.78c-.58,.58-.58,1.52,0,2.1l1.73,1.73c.1,.1,.23,.15,.35,.15s.26-.05,.35-.15c.2-.2,.2-.51,0-.71l-1.73-1.73c-.19-.19-.19-.5,0-.69l1.78-1.78Zm6.87-.71c-.2-.2-.51-.2-.71,0s-.2,.51,0,.71l1.78,1.78c.19,.19,.19,.5,0,.69l-1.73,1.73c-.2,.2-.2,.51,0,.71,.1,.1,.23,.15,.35,.15s.26-.05,.35-.15l1.73-1.73c.58-.58,.58-1.52,0-2.1l-1.78-1.78Zm6.45,9.06c-.42,.68-1.08,1.16-1.86,1.35-.78,.19-1.58,.06-2.27-.36l-.44-.27c-.8,.65-1.7,1.15-2.67,1.5v.51c0,1.65-1.35,3-3,3s-3-1.35-3-3v-.51c-.97-.34-1.87-.84-2.67-1.5l-.44,.27c-.68,.42-1.49,.55-2.27,.36-.78-.19-1.44-.67-1.86-1.35-.86-1.41-.42-3.26,.99-4.13l.44-.27c-.13-.61-.2-1.24-.2-1.88s.07-1.26,.2-1.88l-.44-.27c-1.41-.86-1.85-2.71-.99-4.13,.42-.68,1.08-1.16,1.86-1.35,.78-.19,1.58-.06,2.27,.36l.44,.27c.8-.65,1.7-1.15,2.67-1.5v-.51c0-1.65,1.35-3,3-3s3,1.35,3,3v.51c.97,.34,1.87,.84,2.67,1.5l.44-.27c.68-.42,1.49-.54,2.27-.36,.78,.19,1.44,.67,1.86,1.35,.86,1.41,.42,3.26-.99,4.13l-.44,.27c.13,.61,.2,1.24,.2,1.88s-.07,1.26-.2,1.88l.44,.27c1.41,.86,1.85,2.71,.99,4.13Zm-1.51-3.27l-.75-.46c-.19-.11-.28-.34-.22-.55,.17-.65,.25-1.32,.25-1.99s-.08-1.34-.25-1.99c-.05-.21,.04-.44,.22-.55l.75-.46c.94-.58,1.24-1.81,.66-2.75-.58-.94-1.81-1.24-2.75-.66l-.75,.46c-.19,.11-.43,.09-.59-.05-.86-.76-1.85-1.31-2.94-1.65-.21-.06-.35-.26-.35-.48v-.87c0-1.1-.9-2-2-2s-2,.9-2,2v.87c0,.22-.14,.41-.35,.48-1.09,.33-2.08,.89-2.94,1.65-.16,.15-.4,.17-.59,.05l-.75-.46c-.94-.58-2.17-.28-2.75,.66-.58,.94-.28,2.17,.66,2.75l.75,.46c.19,.11,.28,.34,.22,.55-.17,.65-.25,1.32-.25,1.99s.08,1.34,.25,1.99c.05,.21-.04,.44-.22,.55l-.75,.46c-.94,.58-1.24,1.81-.66,2.75,.58,.94,1.81,1.24,2.75,.66l.75-.46c.08-.05,.17-.07,.26-.07,.12,0,.24,.04,.33,.12,.86,.76,1.85,1.31,2.94,1.65,.21,.06,.35,.26,.35,.48v.87c0,1.1,.9,2,2,2s2-.9,2-2v-.87c0-.22,.14-.41,.35-.48,1.09-.33,2.08-.89,2.94-1.65,.17-.15,.41-.17,.59-.05l.75,.46c.94,.58,2.17,.28,2.75-.66,.58-.94,.28-2.17-.66-2.75Z"/></svg>
