<?xml version="1.0" encoding="UTF-8"?>
<svg xmlns="http://www.w3.org/2000/svg" id="Layer_1" data-name="Layer 1" viewBox="0 0 24 24" width="512" height="512"><path d="M21.3,13.88l-.45-.26c.1-.54,.15-1.09,.15-1.63s-.05-1.08-.15-1.63l.45-.26c1.43-.82,1.93-2.66,1.11-4.1-.4-.69-1.05-1.19-1.82-1.4-.77-.21-1.58-.1-2.28,.3l-.45,.26c-.84-.72-1.81-1.28-2.86-1.65v-.52c0-1.65-1.35-3-3-3s-3,1.35-3,3v.52c-1.05,.37-2.02,.93-2.86,1.65l-.45-.26c-.69-.4-1.5-.5-2.28-.3-.77,.21-1.42,.71-1.82,1.4-.82,1.43-.33,3.27,1.1,4.1l.45,.26c-.1,.54-.15,1.09-.15,1.63s.05,1.08,.15,1.63l-.45,.26c-1.43,.82-1.93,2.66-1.11,4.1,.4,.69,1.05,1.19,1.82,1.4,.77,.21,1.58,.1,2.28-.3l.45-.26c.84,.72,1.81,1.28,2.86,1.65v.52c0,1.65,1.35,3,3,3s3-1.35,3-3v-.52c1.05-.37,2.02-.93,2.86-1.65l.45,.26c.69,.4,1.5,.51,2.28,.3,.77-.21,1.42-.71,1.82-1.4,.82-1.43,.33-3.27-1.1-4.1Zm-12.09-.64c.39,.39,.39,1.02,0,1.41-.2,.2-.45,.29-.71,.29s-.51-.1-.71-.29l-1.21-1.21c-.78-.78-.78-2.04,0-2.81l1.21-1.21c.39-.39,1.02-.39,1.41,0s.39,1.02,0,1.41l-1.21,1.21,1.21,1.19Zm4.57-5.05l-1.6,8c-.09,.48-.51,.8-.98,.8-.06,0-.13,0-.2-.02-.54-.11-.89-.63-.78-1.18l1.6-8c.11-.54,.63-.89,1.18-.78,.54,.11,.89,.63,.78,1.18Zm3.64,5.25l-1.21,1.21c-.2,.2-.45,.29-.71,.29s-.51-.1-.71-.29c-.39-.39-.39-1.02,0-1.41l1.21-1.21-1.21-1.2c-.39-.39-.39-1.02,0-1.41s1.02-.39,1.41,0l1.21,1.21c.78,.78,.78,2.04,0,2.81Z"/></svg>
